<svg width="167" height="123" viewBox="0 0 167 123" xmlns="http://www.w3.org/2000/svg" xmlns:xlink="http://www.w3.org/1999/xlink"><title>expert-tutors</title><desc>Created with Sketch.</desc><defs><rect id="path-1" x="0" y="39.3999992" width="148" height="75" rx="37.5"/></defs><g id="Visual" stroke="none" stroke-width="1" fill="none" fill-rule="evenodd"><g id="Homework-help" transform="translate(-348.000000, -744.000000)"><g id="Group-3-Copy-2" transform="translate(0.000000, 668.000000)"><g id="Group-2" transform="translate(264.000000, 76.000000)"><g id="expert-tutors" transform="translate(84.000000, 0.000000)"><rect id="Rectangle" fill="#fff" x="0" y="0" width="167" height="123"/><mask id="mask-2" fill="#fff"><use xlink:href="#path-1"/></mask><use id="Rectangle" fill="#f2f2f2" xlink:href="#path-1"/><path d="M166.239991 13.1439962v28.340857C166.23818 43.8813347 164.353313 45.8236011 162.027653 45.8254668H141.435461l-9.583643 7.7813025C131.741912 53.6937758 131.59338 53.7082959 131.469557 53.6441385 131.345734 53.579981 131.268463 53.4484643 131.270693 53.3056667V45.8254668H117.412332C115.086672 45.8236011 113.201805 43.8813347 113.199994 41.4848532V13.1439962c0-2.3978026 1.885397-4.34212928 4.212338-4.34399672h44.615321C164.354594 8.80186692 166.239991 10.7461936 166.239991 13.1439962z" id="Path" fill="#d34698" fill-rule="nonzero"/><text id="A" font-family="HaasGrotText-75Bold, Haas Grot Text" font-size="22.3999987" font-weight="bold" fill="#fff"><tspan x="131.756793" y="33.999999">A</tspan></text><path d="M36.026104 55.9542824s12.8757887-5.4788568 13.5781044-6.2948568L63.5334707 49.8925685 68.0985231 55.021711l-4.9162102 23.78057L36.026104 55.9542824z" id="Path" fill="#fff" fill-rule="nonzero"/><path d="M124.751993 51.990854H124.986099C124.283783 57.0034252 123.347362 62.0159963 122.176836 66.911996 121.006309 71.8079957 118.548204 82.8822808 114.100205 88.477709 111.663808 91.6149763 107.755049 93.2516753 103.799574 92.7908516 95.0206267 91.7417088 83.9006274 85.3302806 78.1650488 79.2685667 78.2856168 78.6921444 78.363859 78.1077407 78.3991541 77.5199954 78.4157533 75.3861097 78.0998568 73.2625745 77.4627331 71.2251386H77.6968383C80.7402065 68.7771388 83.4324169 62.5988534 83.4324169 62.5988534 82.7898469 61.8423534 82.0850925 61.1404963 81.3254697 60.5005678 85.1882063 63.2982819 90.4555744 67.9611388 93.9671531 71.1085672 97.4787319 74.2559956 100.873258 78.6857096 104.501889 77.6365668H104.618942L104.9701 77.9862811 107.428205 79.7348524 104.9701 77.8697096C105.087152 77.6365668 105.087152 77.5199954 105.204205 77.403424 108.832836 75.5382812 110.471573 67.9611388 111.993257 64.697139 113.514941 61.4331392 116.324204 54.9051396 118.079994 49.775997c1.053473.4662857 4.213894 2.214857 6.671999 2.214857z" id="Path" fill="#001a96" fill-rule="nonzero"/><path d="M117.377678 49.3097113 118.079994 49.6594256c-1.75579 5.1291426-3.862737 10.0251423-6.086737 14.921142s-3.160421 10.8411422-6.789052 12.7062849c2.926316-8.0434281 12.173473-27.9771412 12.173473-27.9771412z" id="Path" fill="#001a96" fill-rule="nonzero"/><polygon id="Path" fill="#001a7d" fill-rule="nonzero" points="107.428205 79.618281 104.9701 77.8697096 104.9701 77.8697096"/><path d="M105.204205 77.2868525C105.087152 77.403424 105.087152 77.5199954 104.9701 77.7531382L104.735995 77.5199954C104.846524 77.3732286 105.019989 77.2868525 105.204205 77.2868525z" id="Path" fill="#d2f0f9" fill-rule="nonzero"/><polygon id="Path" fill="#e6e6e6" fill-rule="nonzero" points="104.9701 77.7531382 104.9701 77.7531382 104.618942 77.403424 104.735995 77.403424"/><path d="M80.3890487 59.5679964 104.618942 77.6365668H104.501889C100.873258 78.6857096 99.8666494 77.3357656 93.8799319 72.7978152 87.8932144 68.2598649 85.1882063 63.1817105 81.3254697 60.3839964L80.3890487 59.5679964z" id="Path" fill="#001a96" fill-rule="nonzero"/><path d="M80.271996 59.451425H80.3890487L81.3254697 60.267425C82.0850925 60.9073534 83.086748 61.4416763 83.729318 62.1981763c0 0-.507469400000005 3.48636449999999-2.7062736 6.3458196C79.5990347 70.3958623 78.5099577 71.3217955 77.7558132 71.3217955 78.392937 73.3592314 78.4157533 75.1529669 78.3991541 77.2868525 78.363859 77.8745978 78.2856168 78.4590016 78.1650488 79.0354239 77.245713 83.5759082 76.6201448 88.1705074 76.2922068 92.7908516 76.2922068 95.4719943 75.3557858 108.411422 75.1216806 110.975993H72.7806281L48.0825243 111.675422C48.3155001 110.961095 48.5890643 110.260537 48.9018927 109.577136 44.6993978 109.404314 40.4917225 109.756776 36.3772618 110.626279 35.9300674 108.836337 35.7720172 106.986881 35.9090513 105.147422 36.0895648 103.910731 36.206769 102.665692 36.2602092 101.417137 36.8454723 89.7599946 34.2703146 73.7897099 34.2703146 73.7897099 30.8043472 75.9935573 26.8828348 77.3883399 22.7991574 77.8697096c0 0-3.3945261 1.04914280000001-4.4479998 2.3314285V80.5508523C18.234105 70.9919958 21.7456837 66.911996 24.2037889 64.2308533 29.3541043 58.7519965 36.4943144 55.3714253 41.4105247 53.3897111L41.0593668 53.7394254 55.2227344 69.4765673 55.8079975 68.5439959l5.1503155 7.6937138L63.5334707 67.1451389 64.4698917 68.0777102S67.51326 58.7519965 67.1621021 53.9725682l-2.2239999-2.5645713c2.1069473.4662857 8.3107364 1.9817142 15.3338938 8.0434281z" id="Path" fill="#001a96" fill-rule="nonzero"/><path d="M75.8239963 31.0079982C76.8543856 32.4547804 76.9457839 34.3662543 76.0581016 35.9039979 74.3023122 38.9348548 68.8008388 38.3519977 67.7473652 37.6525692L68.0985231 37.3028549C70.8722927 33.6292076 72.1665788 29.0554597 71.7271545 24.4799985 71.9612597 25.2959985 72.7806281 28.3268555 74.3023122 29.4925697 74.8663315 29.9377978 75.3769303 30.4462976 75.8239963 31.0079982z" id="Path" fill="#16191b" fill-rule="nonzero"/><path d="M72.7806281 111.209136V111.675422H72.3124176C64.3573399 114.559604 55.9629773 116.058068 47.4972228 116.105136 47.4940633 114.685887 47.691076 113.273227 48.0825243 111.908565L72.7806281 111.209136z" id="Path" fill="#d2f0f9" fill-rule="nonzero"/><path d="M71.7271545 24.4799985C72.1665788 29.0554597 70.8722927 33.6292076 68.0985231 37.3028549L67.7473652 37.6525692C67.6827188 37.6525692 67.6303126 37.6003784 67.6303126 37.5359978L69.2690493 31.9405695 71.7271545 24.2468557v.2331428z" id="Path" fill="#f0ddd9" fill-rule="nonzero"/><path d="M71.7271545 24.4799985v-.2331428L69.2690493 31.9405695 66.2256811 31.0079982C66.3499269 30.7753123 66.3019355 30.4885476 66.1086285 30.3085696 65.4063127 29.1428554 63.5334707 25.4125699 63.4164181 25.1794271L62.5970497 24.4799985l7.3743154-7.6937138C70.9891064 19.2335805 71.5827844 21.8350253 71.7271545 24.4799985z" id="Path" fill="#f0ddd9" fill-rule="nonzero"/><path d="M69.386102.466285686C78.0479962 6.29485677 70.0884177 16.7862847 70.0884177 16.7862847H69.9713651L69.5031546 15.7371419H69.1519967L69.6202072 15.0377134S65.4063127 7.11085672 56.3932606 8.6262852L55.9250501 6.64457103c2.0346799-.48450967 3.8478482-1.63360062 5.1503155-3.2639998C65.4063127-1.6319999 69.386102.466285686 69.386102.466285686z" id="Path" fill="#16191b" fill-rule="nonzero"/><path d="M69.9713651 16.7862847l-7.3743154 7.6937138-15.0997885 15.737142C47.314752 37.8703112 47.0021348 35.5353216 46.5608402 33.2228552H46.2096823C46.0926297 32.8731409 45.975577 32.7565695 45.7414718 32.7565695 45.5073665 32.7565695 45.3903139 32.8731409 45.1562087 33.2228552c-1.0617248-.2819237-2.0050822-.8946276-2.6922104-1.7485714C40.0058932 27.6274269 42.5810509 26.3451413 42.5810509 26.3451413h.5852632c1.1705262.0 2.2239998 1.7485713 2.6922103 2.5645713C46.3267349 29.7257125 47.9654717 30.6582839 47.9654717 30.6582839l.7023157-1.1657142L48.0825243 22.7314272C55.9099146 25.6597732 64.7249378 22.6847406 69.1519967 15.6205705H69.5031546L69.9713651 16.7862847z" id="Path" fill="#f0ddd9" fill-rule="nonzero"/><path d="M69.6202072 14.921142 69.1519967 15.6205705C64.7249378 22.6847406 55.9099146 25.6597732 48.0825243 22.7314272L48.6677874 29.4925697l-.7023157 1.1657142S47.1461033 28.9097126 45.8585244 28.7931411C44.5709455 28.6765697 44.3368403 26.2285699 43.1663141 26.2285699H43.2833667C43.1416688 24.8693756 43.1810274 23.49749 43.4004193 22.1485701 44.6879982 12.8228564 53.5839976 9.44228515 53.5839976 9.44228515 54.4858944 9.06388517 55.4285137 8.79008476 56.3932606 8.6262852c9.0130521-1.6319999 13.2269466 6.2948568 13.2269466 6.2948568z" id="Path" fill="#16191b" fill-rule="nonzero"/><path d="M69.2690493 31.9405695 67.6303126 37.5359978C67.6303126 37.6003784 67.6827188 37.6525692 67.7473652 37.6525692c-1.3547964 1.3242573-2.9966429 2.3212676-4.7991576 2.9142855C59.9528012 41.3713881 56.791814 41.3310292 53.8181029 40.4502833H53.7010503S58.6172605 43.7142831 62.9482076 42.8982832C63.0652602 44.8799973 63.1823129 47.56114 63.5334707 50.0091399L63.2993655 49.775997S63.6505234 59.6845679 59.7877867 63.4148534c0 0-11.822315-10.491428-12.4075782-12.706285C47.4708765 50.3268716 47.5102382 49.9348729 47.4972612 49.5428542 47.7907922 46.4022134 47.7907922 43.2412099 47.4972612 40.100569L62.5970497 24.4799985 63.4164181 25.1794271C63.5334707 25.5291413 64.703997 31.0079982 64.0016812 32.2902838H64.2357865C65.0409707 32.3254822 65.8022672 31.9240998 66.2256811 31.241141v-.2331428L69.2690493 31.9405695z" id="Path" fill="#f0ddd9" fill-rule="nonzero"/><path d="M66.1086285 30.3085696C66.3019355 30.4885476 66.3499269 30.7753123 66.2256811 31.0079982v.2331428C65.8022672 31.9240998 65.0409707 32.3254822 64.2357865 32.2902838H64.0016812C64.703997 31.0079982 63.5334707 25.5291413 63.4164181 25.1794271 63.2993655 24.8297128 65.4063127 29.1428554 66.1086285 30.3085696z" id="Path" fill="#eec4ca" fill-rule="nonzero"/><path d="M62.9482076 43.0148546C58.6172605 43.8308545 53.7010503 40.5668547 53.7010503 40.5668547H53.8181029C56.791814 41.4476006 59.9528012 41.4879595 62.9482076 40.6834261v2.3314285z" id="Path" fill="#eec4ca" fill-rule="nonzero"/><path d="M55.9250501 6.52799961 56.3932606 8.50971378C55.4285137 8.67351334 54.4858944 8.94731375 53.5839976 9.32571373c0 0-8.89599939999999 3.38057127-10.1835783 12.70628497l-3.5115787-.6994285C40.0457265 20.3951251 39.9652612 19.4335102 39.6547353 18.534856c-1.7557894-5.4788568 5.618526-13.52228487 11.237052-12.12342781C52.1496945 6.74777815 53.4563345 6.86607528 54.7545239 6.76114245l1.1705262-.23314284z" id="Path" fill="#16191b" fill-rule="nonzero"/><path d="M48.9018927 109.810279C48.5890643 110.49368 48.3155001 111.194238 48.0825243 111.908565L31.5781042 112.37485 33.3338936 111.791993 36.3772618 110.859422c4.1144607-.869502999999995 8.322136-1.221965 12.5246309-1.049143z" id="Path" fill="#001a96" fill-rule="nonzero"/><path d="M31.5781042 112.37485 48.0825243 111.908565C47.691076 113.273227 47.4940633 114.685887 47.4972612 116.105136 40.8547982 116.201992 34.2215603 115.576575 27.7153676 114.239993c1.239792-.715429 2.5308718-1.33883299999999 3.8627366-1.865143z" id="Path" fill="#001a96" fill-rule="nonzero"/><path d="M48.9018927 120.53485C43.9312875 121.995534 38.7363011 122.548441 33.5679988 122.16685H33.3338936L32.1633673 121.933707C31.0520069 121.609762 29.9891193 121.139309 29.0029465 120.53485 28.4176834 118.319993 22.5806343 115.964344 26.4277887 113.657136L28.0079992 114.065136C34.5228123 115.323487 40.8633365 116.27872 47.4972612 116.105136 47.5107778 117.688269 47.9999999 119.231103 48.9018927 120.53485z" id="Path" fill="#001a96" fill-rule="nonzero"/><path d="M46.5608402 33.2228552C47.0021348 35.5353216 47.314752 37.8703112 47.4972612 40.2171405 40.2399984 40.6834261 36.9625249 37.885712 35.4408408 34.9714265 34.1809693 32.2413703 34.6884739 29.0250722 36.7284197 26.811427 38.2884756 25.3253872 39.3856904 23.4232725 39.8888406 21.3325702l3.5115787.6994285C43.1810274 23.3809186 43.1416688 24.7528041 43.2833667 26.1119984H42.5810509S40.0058932 27.3942841 42.4639983 31.241141C43.1511265 32.0950848 44.0944839 32.7077887 45.1562087 32.9897123 45.0055993 33.5606331 44.9269592 34.1480089 44.9221034 34.7382836 44.8050508 36.1371407 45.1562087 37.1862835 45.6244192 37.1862835 46.0926297 37.1862835 46.4437875 36.1371407 46.5608402 34.8548551 46.5804496 34.2151781 46.4606484 33.578865 46.2096823 32.9897123L46.5608402 33.2228552z" id="Path" fill="#16191b" fill-rule="nonzero"/><path d="M46.5608402 35.0879979C46.4437875 36.3702835 46.0926297 37.4194263 45.6244192 37.4194263 45.1562087 37.4194263 44.8050508 36.3702835 44.9221034 34.9714265 44.9269592 34.3811517 45.0055993 33.793776 45.1562087 33.2228552 45.4977953 33.3383271 45.8680957 33.3383271 46.2096823 33.2228552 46.4606484 33.8120078 46.5804496 34.4483209 46.5608402 35.0879979z" id="Path" fill="#e00099" fill-rule="nonzero"/><path d="M46.2096823 33.2228552C45.8680957 33.3383271 45.4977953 33.3383271 45.1562087 33.2228552 45.3903139 32.8731409 45.5073665 32.7565695 45.7414718 32.7565695 45.975577 32.7565695 46.0926297 32.8731409 46.2096823 33.2228552z" id="Path" fill="#e00099" fill-rule="nonzero"/><path d="M33.3338936 111.791993c2.3410525-1.515428 2.9263156-10.025142 2.9263156-10.025142C36.206769 103.015407 36.0895648 104.260445 35.9090513 105.497137 35.7843877 107.297935 36.2921844 109.085495 36.7270921 110.837835L33.3338936 111.791993z" id="Path" fill="#001a96" fill-rule="nonzero"/><path d="M38.9487855 82.8027469c.5852632-8.1411667 4.861318 6.5876438 3.2225812 14.6310719-1.3985588 6.7300532-4.9734039 8.5929462-7.315789 15.0576032l-7.8425258 1.049143-.3511579-1.282286H23.9696836C21.9366692 105.64563 20.3336288 98.9093886 19.170526 92.0914231 18.5185119 88.3578752 18.319309 83.4129018 18.3483058 79.6234189 20.7555149 78.4021012 26.2579388 76.255156 34.8555777 73.1825834 35.8493903 73.537706 38.2537984 82.0111487 38.9487855 82.8027469z" id="Path" fill="#001a96" fill-rule="nonzero"/><path d="M27.3642097 112.491422h4.2138945c-1.3318648.526308999999998-2.6229446 1.149714-3.8627366 1.865143H27.1301045C27.1026984 114.160144 27.0636122 113.965516 27.0130519 113.773708L27.3642097 112.491422z" id="Path" fill="#001a96" fill-rule="nonzero"/><path d="M27.2471571 114.356565C27.8324202 116.221707 28.4176834 118.203422 29.0029465 120.418279c-1.6636486-1.07215100000001-2.9679278-2.614616-3.745684-4.429714C25.9595782 115.63885 26.1936835 115.755422 26.1936835 115.871993 26.287202 115.604637 26.3653635 115.332196 26.4277887 115.055993 26.6313835 114.729292 26.7889277 114.376275 26.8959992 114.00685H27.1301045C27.2471571 114.123422 27.2471571 114.239993 27.2471571 114.356565z" id="Path" fill="#001a96" fill-rule="nonzero"/><path d="M27.7153676 114.239993H27.2471571C27.2471571 114.123422 27.2471571 114.00685 27.1301045 114.00685L27.7153676 114.239993z" id="Path" fill="#001a96" fill-rule="nonzero"/><path d="M27.0130519 113.540565C27.0636122 113.732373 27.1026984 113.927001 27.1301045 114.123422H26.8959992C26.8959992 113.773708 27.0130519 113.657136 27.0130519 113.540565z" id="Path" fill="#001a96" fill-rule="nonzero"/><path d="M27.422736 113.540565C27.422736 113.657136 26.8959992 113.773708 26.8959992 114.00685 26.7889277 114.376275 26.6313835 114.729292 26.4277887 115.055993 26.3653635 115.332196 26.287202 115.604637 26.1936835 115.871993 26.1936835 115.755422 25.9595782 115.63885 25.2572625 115.988565 25.0503078 115.581302 24.8931165 115.150803 24.789052 114.706279L24.4378941 113.540565C24.2292761 113.093386 24.0722042 112.624107 23.9696836 112.141708H26.661894L27.422736 113.540565z" id="Path" fill="#001a96" fill-rule="nonzero"/><path id="Path" fill="#001a96" fill-rule="nonzero"/><path d="M126.624835 34.0388551S128.263572 33.6891408 127.912414 36.8365692C128.666868 40.3160451 128.037511 43.9513081 126.156625 46.9782829 125.465581 48.0424887 124.988547 49.2301709 124.751993 50.4754256 124.730917 50.9876791 124.652395 51.4959796 124.517888 51.990854H124.400836C121.964619 51.767485 119.626878 50.9245413 117.611783 49.5428542L119.367573 46.162283S116.55831 38.701712 125.571362 25.5291413c0 0 1.17052600000001-1.5154284 1.17052600000001.349714300000002S125.103151 29.9588554 125.103151 31.7074267C125.103151 33.455998 126.624835 31.8239981 126.624835 34.0388551z" id="Path" fill="#f0ddd9" fill-rule="nonzero"/><path d="M36.4943144 94.3062801s.117052700000002 13.7554279.0 15.1542849C40.2634824 109.022574 44.053783 108.789086 47.848419 108.761136c0 0-7.0231574-1.39885699999999-9.4812626-1.16571399999999.0.0-1.5216841-10.9577135-1.872842-13.2891419z" id="Path" fill="#001a7d" fill-rule="nonzero"/><path d="M87.0610483 108.061708C87.1781009 108.178279 87.1781009 108.294851 87.1781009 108.527994 87.1781009 108.978658 86.8112572 109.343993 86.3587325 109.343993h-.7023157C84.364283 109.236022 83.0632631 109.314548 81.7936802 109.577136L86.7098904 108.294851 87.0610483 108.061708z" id="Path" fill="#f0ddd9" fill-rule="nonzero"/><path d="M86.5928378 106.429708C87.0453624 106.429708 87.4122062 106.795044 87.4122062 107.245708 87.4122062 107.711994 87.1781009 108.061708 86.7098904 108.061708 86.7098904 108.126088 86.6574842 108.178279 86.5928378 108.178279H86.4757852C84.3510397 107.934795 82.198675 108.133268 80.1549434 108.761136L84.954101 106.895994h.5852632C85.6948976 106.930208 85.8577153 106.899814 85.9902466 106.811823 86.1227778 106.723832 86.2135727 106.585847 86.2416799 106.429708H86.5928378z" id="Path" fill="#f0ddd9" fill-rule="nonzero"/><path d="M80.271996 109.810279 81.208417 109.577136 80.271996 109.810279zM81.7936802 109.460565C83.0632631 109.197977 84.364283 109.119451 85.6564168 109.227422L82.2618907 110.276565V110.043422C81.9107328 109.110851 80.9743118 109.926851 80.9743118 109.926851 79.5365732 110.880689 77.8915299 111.48006 76.1751542 111.675422 76.0458614 111.707612 75.9148459 111.629326 75.8825227 111.500565 75.8501995 111.371804 75.9288088 111.241327 76.0581016 111.209136 77.1587835 110.288535 78.1770685 109.274436 79.1014698 108.178279 80.5061013 106.662851 83.3153643 106.779422 85.0711537 106.779422l-4.7991577 1.865143C82.3157277 108.016697 84.4680923 107.818223 86.5928378 108.061708 86.6574842 108.061708 86.7098904 108.009517 86.7098904 107.945136L81.7936802 109.460565z" id="Shape" fill="#f0ddd9" fill-rule="nonzero"/><path d="M86.3587325 105.846851C86.3696045 105.974486 86.3272744 106.100954 86.2416799 106.196565L84.954101 106.662851C83.1983117 106.662851 80.3890487 106.546279 78.9844172 108.061708 78.0600159 109.157865 77.0417308 110.171964 75.9410489 111.092565 75.8117562 111.124755 75.7331469 111.255232 75.7654701 111.383993 75.7977932 111.512755 75.9288088 111.591041 76.0581016 111.55885 77.7744772 111.363489 79.4195205 110.764118 80.8572592 109.810279 80.8572592 109.810279 81.7936802 108.994279 82.144838 109.926851V110.159993C82.0277854 110.393136 82.0277854 110.742851 81.9107328 110.859422 81.7936802 110.975993 77.1115752 113.773708 77.1115752 113.773708 74.3830219 115.288919 71.0611816 115.288919 68.3326283 113.773708l-3.6286313 1.981714-1.872842-5.828571L67.6303126 109.110851S77.3456804 103.049137 85.5393642 104.914279C85.778563 104.911834 86.0068901 105.013612 86.1644119 105.192897 86.3219337 105.372182 86.3929182 105.611068 86.3587325 105.846851z" id="Path" fill="#f0ddd9" fill-rule="nonzero"/><path d="M84.954101 106.779422 86.2416799 106.313137C86.2135727 106.469275 86.1227778 106.60726 85.9902466 106.695251 85.8577153 106.783242 85.6948976 106.813637 85.5393642 106.779422H84.954101z" id="Path" fill="#eec4ca" fill-rule="nonzero"/><path d="M85.6564168 109.227422C85.7420113 109.323033 85.7843413 109.449502 85.7734694 109.577136 85.7771909 110.049892 85.4251011 110.450626 84.954101 110.509708 84.8894547 110.509708 84.8370484 110.457517 84.8370484 110.393136H82.2618907L85.6564168 109.343993V109.227422z" id="Path" fill="#f0ddd9" fill-rule="nonzero"/><path d="M81.208417 109.577136 80.271996 109.810279 81.208417 109.577136z" id="Path" fill="#eec4ca" fill-rule="nonzero"/><path d="M36.4943144 109.460565S60.7242077 107.828565 66.4597863 108.527994L67.7473652 115.289136S45.975577 122.516564 37.5477881 122.283421l-1.0534737-12.822856z" id="Path" fill="#001a96" fill-rule="nonzero"/></g></g></g></g></g></svg>