<svg width="381" height="174" viewBox="0 0 381 174" xmlns="http://www.w3.org/2000/svg" xmlns:xlink="http://www.w3.org/1999/xlink"><title>subscribe</title><desc>Created with Sketch.</desc><defs><polygon id="path-1" points="142.417613 22.1823492 291.014107 22.2703593 291.082931 159.228754 142.486438 159.140743"/><filter x="-9.1%" y="-7.7%" width="118.2%" height="119.7%" filterUnits="objectBoundingBox" id="filter-2"><feOffset dx="0" dy="3" in="SourceAlpha" result="shadowOffsetOuter1"/><feGaussianBlur stdDeviation="4" in="shadowOffsetOuter1" result="shadowBlurOuter1"/><feColorMatrix values="0 0 0 0 0.266666698 0 0 0 0 0.266666698 0 0 0 0 0.266666698 0 0 0 0.0286741395 0" type="matrix" in="shadowBlurOuter1"/></filter></defs><g id="Page-1" stroke="none" stroke-width="1" fill="none" fill-rule="evenodd"><g id="fullpage" transform="translate(-1027.000000, -5470.000000)"><g id="section-get_started-white" transform="translate(0.000000, 5149.000000)"><g id="section-get_started_content" transform="translate(120.000000, 71.000000)"><g id="div-subscribe_access" transform="translate(750.000000, 160.000000)"><g id="subscribe" transform="translate(157.000000, 90.000000)"><rect id="Rectangle" fill="#fff" x="0" y="0" width="381" height="166"/><g id="illustration-/-subscribe" transform="translate(0.000000, 1.000000)" fill-rule="nonzero"><g id="Group" opacity=".5" transform="translate(264.526110, 20.191812)" fill="#d2f0f9"><path d="M60.2002847 10.5463386C59.916537 9.54451405 58.5527172 9.08631525 57.3445011 8.99312227 56.1362849 8.89992929 54.8456904 8.99312227 53.8205373 8.42619833c-1.0251531-.56692394-1.5651891-1.63864318-2.5720359-2.25216361C49.4178709 5.07125116 46.8641414 5.88668971 44.7314568 5.34306401c-2.1326846-.5436257-3.3866665-2.19780104-5.0891529-3.33164893-3.4530679-2.163862169-8.1923242-2.0776964245-11.5329722.2096842-1.3455135.97852626-2.4713512 2.32982443-4.1921439 2.68706417-1.4278918.28734501-2.9107026-.20191812-4.375207-.19415204-3.9083961.0-6.7275671 3.49473664-10.59019755 3.98399977C7.51473829 8.87663105 6.04108072 8.62811644 4.61318891 8.80673632 2.83747731 9.03195268 1.20821614 9.20280647.256288273 10.491976L60.2002847 10.5463386z" id="Shape"/></g><g id="Group" opacity=".75" transform="translate(47.596394, 99.405842)" fill="#ccf1d6"><path d="M7.5513509 32.1205127C4.26873908 38.2733923 7.22155168 45.5303642 14.2789181 48.6545c6.178378 2.7957893 14.1050081 2.1745028 19.972179-1.0639531C40.1182679 44.3520909 43.8985199 38.7372141 44.923673 32.8349922 45.6376189 28.7655655 44.8412946 24.1059167 41.1159615 21.465449 38.3700157 19.5394608 34.7087547 19.0579638 31.1756378 18.6463615 31.5051513 13.7692623 30.2145568 8.63588253 26.4892236 4.90816345 22.7638905 1.18044437 16.3200711-.768842059 10.97463 1.02512275 5.26306275 2.98217526 2.32490076 8.42619833 1.27228821 13.5751103c-.768489048 3.7837851-.833347962 7.6463794-.1922162 11.447204.1779477 1.628783.77806729 3.2040503 1.7574053 4.6130524 1.01999548 1.4167263 2.83962828 2.2770593 4.79625196 2.2676957L7.5513509 32.1205127z" id="Shape"/></g><path d="M73.7927163 164.524772C73.671258 164.518438 73.5576127 164.471654 73.4768903 164.394421 73.3961679 164.317188 73.3550128 164.215863 73.3625181 164.112832 74.0581577 153.706283 72.1359957 149.069933 68.9690049 141.373746 68.0536896 139.113816 66.9736176 136.551009 65.856933 133.522238c-4.8786303-13.202339.0-22.094502.0549189000000041-22.179929C65.9615551 111.248654 66.0537683 111.176024 66.1675361 111.140923 66.281304 111.105822 66.406964 111.111232 66.51596 111.155923 66.6269732 111.199684 66.7126978 111.279354 66.7539775 111.37713 66.7952573 111.474906 66.7886512 111.582637 66.7356357 111.676251c0 .0854270000000099-4.7687925 8.713543.0 21.613004C67.8431671 136.310261 68.9049328 138.865302 69.8294012 141.117465 73.0421578 148.883547 74.973473 153.597558 74.2778334 164.151663 74.2630642 164.367401 74.0472021 164.533273 73.7927163 164.524772z" id="Shape" fill="gray"/><path d="M69.7287166 144.006448h-.1372973C69.3512128 143.939648 69.2173143 143.722761 69.2893652 143.517184 69.2893652 143.423991 72.694338 134.252249 83.4492923 130.454635 83.6817843 130.378612 83.9436638 130.470908 84.0442472 130.66432 84.0926694 130.760001 84.0937697 130.868174 84.0473013 130.96455 84.0008328 131.060927 83.9106896 131.137429 83.7971121 131.176881c-10.3613687 3.650058-13.6015848 12.480093-13.6290442 12.56552C70.1022192 143.900426 69.9262633 144.006174 69.7287166 144.006448z" id="Shape" fill="gray"/><path d="M315.591549 74.5543815S307.994432 82.6932348 311.591621 98.9709415C315.18881 115.248648 318.392413 131.192413 305.596306 136.954846 292.800199 142.717278 278.017857 133.227127 280.013245 120.00149 282.008632 106.775853 290.411226 101.681304 291.20755 93.5424506 292.003874 85.4035972 293.202937 71.5023115 307.994432 62.3383355c14.791495-9.1639761 18.571747-1.7939648 17.592359.0C323.188665 66.7883001 318.392413 68.7997152 315.591549 74.5543815z" id="Shape" fill="#ccf1d6" opacity=".5"/><path d="M292.589676 165.495195C292.348951 165.495195 292.150997 165.334265 292.141172 165.130189 291.038293 143.360609 292.17761 121.550896 295.546145 99.9494677 301.129568 65.4835984 319.902684 61.7791776 320.699008 61.6393881 320.816875 61.6163927 320.940692 61.6347603 321.04237 61.6903241 321.144048 61.7458878 321.214969 61.8339378 321.239044 61.9344992 321.284964 62.1456391 321.128134 62.3503526 320.882071 62.4004641c-.192215999999974.0-18.947026 3.7898477-24.429764 37.6577289C293.099949 121.608757 291.960675 143.365696 293.047334 165.083592 293.054839 165.186623 293.013684 165.287948 292.932962 165.365181 292.852239 165.442414 292.738594 165.489198 292.617136 165.495195H292.589676z" id="Shape" fill="gray"/><path d="M311.829603 105.991479S320.982756 109.626005 322.117747 116.654309C323.252737 123.682613 321.541098 126.835642 324.406035 129.747922 327.270971 132.660203 335.829169 138.469232 329.540953 145.74605S316.406179 150.102821 311.829603 147.920553C307.253027 145.738284 303.829748 137.048039 308.406324 130.718682 312.9829 124.389326 314.978288 119.807338 312.9829 114.720555 310.987513 109.633771 305.55054 105.020719 311.829603 105.991479z" id="Shape" fill="#99e3ad"/><path d="M317.614395 164.679756H317.54117C317.421479 164.664563 317.314104 164.608973 317.243434 164.525614 317.172765 164.442255 317.1448 164.338202 317.165891 164.23709 325.037602 122.47887 313.440558 110.612298 313.321567 110.495806 313.154747 110.332821 313.175237 110.085954 313.367333 109.944415 313.559428 109.802875 313.850387 109.82026 314.017207 109.983245 314.511477 110.464742 326.007836 122.245887 318.072053 164.345815 318.036252 164.537097 317.842661 164.678356 317.614395 164.679756z" id="Shape" fill="gray"/><path d="M129.718479 165.02923s-11.734342-18.809449-24.905728-19.554993C95.8518141 144.969442 91.9342648 149.357278 88.7123551 151.368693 86.1403192 152.976272 79.4310583 159.911382 73.6279596 161.464599c-8.576504 2.205567-12.8144137-7.160327-23.3771518-7.183626-8.9792427.0-18.4710619 10.779321-18.4710619 10.779321L129.718479 165.02923z" id="Shape" fill="#ccf1d6"/><ellipse id="Oval" fill="#fff" cx="376.112194" cy="116.079619" rx="3.78940518" ry="3.2151577"/><g id="Group" opacity=".5" transform="translate(24.713512, 0.000000)" fill="#d2f0f9"><path d="M.704792751 13.5906425c3.240216019.0 10.544431849-2.4929122 13.070701949-3.64229222 2.5262701-1.14938004 5.5925762-2.32982442 8.1188463-1.16491221C22.3519987 8.98535619 22.8554221 9.26493512 23.331386 9.10184741 23.9995661 8.88439713 23.9354941 8.0611925 24.2467013 7.54863113 24.7318183 6.8108534 25.9217282 6.71766042 26.9011155 6.85744988c.9407116.25677091 1.9443653.29961668 2.9107025.12425731 1.0800721-.35723975 1.6109549-1.35906425 2.1692972-2.21333321C33.4156848 2.42023471 36.0403333.760071522 39.1022679.264046768 42.1411146-.10872514 45.5094748 1.27363735 46.5895468 3.71218691 47.0197449 4.69071317 47.0746639 5.77019849 47.5506278 6.73319258 48.0265917 7.69618668 49.12497 8.58928604 50.2965736 8.395134c1.7116395-.26404677 2.2974413-2.32982442 3.9999277-2.67929808 1.7024864-.34947367 2.8557836 1.24257302 3.7894051 2.44631564C59.3948073 9.85515731 60.2552036 13.5984085 65.3443565 13.5984085L.704792751 13.5906425z" id="Shape"/></g><path d="M215.785573 145.334447 101.270477 157.224318V78.0102877C101.267618 75.781374 103.046097 73.8344224 105.590768 73.2807442L215.785573 62.3305694V145.334447z" id="Shape" fill="#05278e"/><polygon id="Rectangle-path" fill="#f2f2f2" transform="translate(210.193195, 85.110906) rotate(-89.810000) translate(-210.193195, -85.110906)" points="135.860535 16.587704 284.457029 16.6757141 284.525854 153.634108 135.92936 153.546098"/><g id="Rectangle-path" transform="translate(216.750272, 90.705551) rotate(-89.810000) translate(-216.750272, -90.705551)"><use fill="#000" fill-opacity="1" filter="url(#filter-2)" xlink:href="#path-1"/><use fill="#fff" xlink:href="#path-1"/></g><polygon id="Rectangle-path" fill="#f2f2f2" transform="translate(216.568981, 132.181110) rotate(0.190000) translate(-216.568981, -132.181110)" points="172.479245 130.638398 260.66057 130.594085 260.658716 133.723822 172.477391 133.768135"/><polygon id="Rectangle-path" fill="#f2f2f2" transform="translate(209.679534, 144.331113) rotate(0.190000) translate(-209.679534, -144.331113)" points="172.431833 142.676238 246.929218 142.638801 246.927236 145.985989 172.429851 146.023426"/><polygon id="Rectangle-path" fill="#f2f2f2" transform="translate(238.589515, 70.588478) rotate(0.190000) translate(-238.589515, -70.588478)" points="216.655013 68.925907 260.526 68.9038608 260.524018 72.2510485 216.65303 72.2730947"/><polygon id="Rectangle-path" fill="#f2f2f2" transform="translate(238.667640, 45.915979) rotate(0.190000) translate(-238.667640, -45.915979)" points="216.751379 44.3621242 260.585754 44.3400964 260.5839 47.4698334 216.749526 47.4918612"/><polygon id="Rectangle-path" fill="#f2f2f2" transform="translate(238.618772, 58.419172) rotate(0.190000) translate(-238.618772, -58.419172)" points="216.702511 56.8653178 260.536886 56.84329 260.535033 59.9730269 216.700658 59.9950548"/><polygon id="Rectangle-path" fill="#f2f2f2" transform="translate(233.662378, 83.000259) rotate(0.190000) translate(-233.662378, -83.000259)" points="216.661416 81.3352088 250.665322 81.318121 250.663339 84.6653087 216.659434 84.6823965"/><path d="M160.070333 27.8802342C158.365878 27.8674776 156.990667 26.6937422 156.98572 25.2475307L157.031486 14.0799056H157.946801L157.901036 25.2475307C157.900581 25.7383594 158.127392 26.2096974 158.532603 26.5599984 158.939478 26.9076273 159.492911 27.1032796 160.070333 27.1036241 160.643467 27.1041301 161.193344 26.9113644 161.598909 26.5677645 162.007791 26.2214189 162.240996 25.7532312 162.248783 25.2630628L162.303702 10.7482567C162.30861 9.9622442 161.942772 9.20721975 161.287702 8.65141469 160.640846 8.08812719 159.752419 7.77147739 158.825504 7.77384749 156.905136 7.77809053 155.348201 9.09562041 155.338153 10.7249584H154.422838C154.432898 8.66671258 156.399627 7.0014919 158.825504 6.99723935 159.994755 6.99929327 161.11502 7.39589327 161.939227 8.09957101 162.763435 8.80324875 163.223882 9.75620037 163.219055 10.7482567L163.164098 25.2630628C163.15867 25.9598361 162.829802 26.6267198 162.248783 27.1191563 161.669914 27.6074026 160.886563 27.8810787 160.070333 27.8802342z" id="Shape" fill="#666"/><polygon id="Rectangle-path" fill="#f2f2f2" transform="translate(188.361794, 64.750755) rotate(0.190000) translate(-188.361794, -64.750755)" points="172.580028 44.5435424 204.167505 44.527669 204.14356 84.9579682 172.556083 84.9738416"/><polygon id="Shape" fill="#f9cceb" points="174.870981 121.779923 172.289792 119.582122 187.90507 106.325421 204.728564 114.25459 227.931806 104.018894 236.078112 110.938473 259.555948 98.3962514 261.50557 101.028953 235.556382 114.891408 227.236167 107.824274 204.673645 117.780391 188.545791 110.177397"/><path d="M116.437254 81.9399249h-9.857945C103.647324 81.9399249 101.27048 79.923269 101.27048 77.4355977V164.943803H234.750905V81.9399249H116.437254z" id="Shape" fill="#4960ad"/><g id="Group" opacity=".5" transform="translate(100.684679, 84.650287)" fill="#fff"><path d="M2.17845032 2.40748524C1.45419227 2.11069.753961268 1.77341788.0823783735 1.39789465L1.08922516.100959058c.60054837.338503165 1.22745088.642076234 1.87639628.908631522L2.17845032 2.40748524z" id="Shape"/><path d="M121.132822 3.8830407h-4.576577V2.32982442h4.576577V3.8830407zm-9.153153.0h-4.576576V2.32982442h4.576576V3.8830407zm-9.153153.0H98.2499401V2.32982442h4.5765759V3.8830407zm-9.15315219999999.0H89.0967875V2.32982442h4.5765763V3.8830407zm-9.1531526.0H79.9436349V2.32982442h4.5765763V3.8830407zm-9.15315260000001.0H70.7904823V2.32982442h4.5765763V3.8830407zm-9.1531526.0H61.6373297V2.32982442H66.213906V3.8830407zm-9.15315259999999.0H52.4841771V2.32982442H57.0607534V3.8830407zm-9.1531527.0H43.3310244V2.32982442H47.9076007V3.8830407zm-9.15315260000001.0H34.1778718V2.32982442h4.5765763V3.8830407zm-9.1531526.0H25.0247192V2.32982442h4.5765763V3.8830407zm-9.1531526.0H15.8715666V2.32982442h4.5765763V3.8830407zm-9.1531526.0H9.51012556C8.53204563 3.88202424 7.55563475 3.81450205 6.59026988 3.68112259l.31120719-1.55321628c.8617634.12466966 1.73444833.18702234 2.60864849.18638595H11.2949903V3.8830407z" id="Shape"/><polygon id="Shape" points="128.913001 5.01688859 127.082371 5.01688859 127.082371 3.85197638 125.709398 3.85197638 125.709398 2.2987601 128.913001 2.2987601"/><path d="M128.913001 69.1957853H127.082371v-4.015064H128.913001v4.015064zm0-8.02236199999999H127.082371V57.1661252H128.913001v4.0072981zm0-8.0223621H127.082371v-4.007298H128.913001v4.007298zm0-8.0223621H127.082371V41.1602315H128.913001v3.9684676zm0-8.0223621H127.082371V33.099039H128.913001V37.106337zm0-8.0223621H127.082371v-4.007298H128.913001v4.007298zm0-8.0223621H127.082371V17.0853791H128.913001v3.9762337zm0-8.0223621H127.082371V9.03195268H128.913001V13.0392507z" id="Shape"/><polygon id="Shape" points="128.913001 75.9212118 125.709398 75.9212118 125.709398 74.3679956 127.082371 74.3679956 127.082371 73.2030834 128.913001 73.2030834"/><path d="M121.151128 75.9212118h-4.576576V74.3679956h4.576576V75.9212118zm-9.107387.0h-4.576576V74.3679956h4.576576V75.9212118zm-9.153153.0H98.3140122V74.3679956h4.5765758V75.9212118zm-9.1073864.0H89.2066253V74.3679956h4.5765763V75.9212118zm-9.1531526.0H80.0534727V74.3679956H84.630049V75.9212118zm-9.1531526.0H70.9003201V74.3679956h4.5765763V75.9212118zm-9.1073868.0H61.7929333V74.3679956h4.5765763V75.9212118zm-9.1531527.0H52.6397806V74.3679956h4.5765763V75.9212118zm-9.1073868.0H43.5323938V74.3679956h4.5765763V75.9212118zm-9.1531526.0H34.3792412V74.3679956h4.5765763V75.9212118zm-9.1073868.0H25.2718543V74.3679956h4.5765764V75.9212118zm-9.1531527.0H16.1187017V74.3679956H20.695278V75.9212118zm-9.1073868.0H7.0113149V74.3679956h4.5765763V75.9212118z" id="Shape"/><rect id="Rectangle-path" x=".402738715" y="74.3679956" width="2.28828815" height="1.55321628"/></g><g id="Group" opacity=".5" transform="translate(254.457642, 153.768412)" fill="#ccf1d6"><path d="M.594954919 11.4239058C6.29736899 6.38371892 14.7091162 2.69483025 23.9721067 1.16491221 32.5303044-.248514605 42.0770425.256280686 49.4270241 3.43260798 51.9624474 4.52762546 54.278195 5.94105228 57.2072038 6.45361365c6.1143059 1.06395315 12.237765-2.13567239 18.5625935-1.92598819C84.9687157 4.83050264 88.5842109 11.3229467 97.9387329 11.260818L.594954919 11.4239058z" id="Shape"/></g><g id="Group" opacity=".5" transform="translate(0.000000, 156.874844)" fill="#ccf1d6"><path d="M68.5479599 8.15438548C64.0909998 4.43272836 58.4113948 1.94205262 52.2553482 1.00959058 46.2874927.0232982442 39.6331508.372771908 34.5073853 2.56280686c-1.7665584.77660815-3.3866664 1.74736832-5.4278195 2.10460807-4.2562159.77660814-8.5307382-1.48332155-12.9334046-1.34353209C9.73895437 3.53356704 7.1852248 8.0611925.695639598 8.02236209L68.5479599 8.15438548z" id="Shape"/></g><path d="M317.358107 165.192318S324.332809 154.001394 332.167908 153.543196C337.48589 153.240318 339.819944 155.87302 341.732953 157.045698 343.270682 158.000926 347.224844 162.148014 350.703042 163.025581 355.810501 164.338049 358.318465 158.769768 364.606681 158.754236c5.33628800000003.0 10.983783 6.414783 10.983783 6.414783L317.358107 165.192318z" id="Shape" fill="#ccf1d6"/></g></g></g></g></g></g></g></svg>