<svg width="381" height="166" viewBox="0 0 381 166" xmlns="http://www.w3.org/2000/svg" xmlns:xlink="http://www.w3.org/1999/xlink"><title>upload</title><desc>Created with Sketch.</desc><defs><polygon id="path-1" points="113.358529 40.2435013 238.260785 40.243113 238.260482 137.826287 113.358226 137.826675"/><filter x="-10.8%" y="-10.8%" width="121.6%" height="127.7%" filterUnits="objectBoundingBox" id="filter-2"><feOffset dx="0" dy="3" in="SourceAlpha" result="shadowOffsetOuter1"/><feGaussianBlur stdDeviation="4" in="shadowOffsetOuter1" result="shadowBlurOuter1"/><feColorMatrix values="0 0 0 0 0.266666698 0 0 0 0 0.266666698 0 0 0 0 0.266666698 0 0 0 0.0286741395 0" type="matrix" in="shadowBlurOuter1"/></filter></defs><g id="Page-1" stroke="none" stroke-width="1" fill="none" fill-rule="evenodd"><g id="fullpage" transform="translate(-275.000000, -5470.000000)"><g id="section-get_started-white" transform="translate(0.000000, 5149.000000)"><g id="section-get_started_content" transform="translate(120.000000, 71.000000)"><g id="div-free_access" transform="translate(0.000000, 160.000000)"><g id="upload" transform="translate(155.000000, 90.000000)"><rect id="Rectangle" fill="#fff" x="0" y="0" width="381" height="166"/><g id="illustration-/-upload" transform="translate(57.000000, 0.000000)"><g><g id="Group" opacity=".5" transform="translate(202.874160, 43.564019)" fill="#d2f0f9" fill-rule="nonzero"><path d="M60.4761553 12.5914067C60.2023805 11.4179887 58.8335064 10.8699253 57.6260893 10.7504755 56.4186721 10.6310258 55.1270166 10.7504755 54.1161557 10.0899888c-1.0108609-.66048672-1.5654304-1.93930146-2.5762912-2.66302628-1.8111257-1.2998941-4.3803971-.33726982-6.5214566-.97667719S41.634832 3.85049712 39.9290042 2.5224972C36.4817637-.0406308566 31.7373754.060592904 28.4023824 2.76842312c-1.3548343 1.15233855-2.4709932 2.7543702-4.2119203 3.16893102-1.4039734.33726982-2.906225-.23889945-4.3733772-.231873-3.910066.0-6.7250327 4.1175024-10.59297949 4.69367166C7.82013198 10.6169729 6.31788042 10.3218618 4.87880766 10.5396819 3.10980114 10.7996607 1.4741721 11.0034279.526490035 12.5211421L60.4761553 12.5914067z" id="Shape"/></g><g id="Group" opacity=".5" transform="translate(216.913894, 98.370365)" fill="#99e3ad" fill-rule="nonzero"><path d="M3.42569516 26.2508344c-4.057414036 4.5442118-3.866459869 11.4681719.43523176 15.7814171 3.74860905 3.8223913 9.70847628 5.1152589 14.86105868 3.6678093 5.1525825-1.4474497 9.4347015-5.4033436 11.7793371-10.2234915C32.122912 32.1319769 32.8038391 27.94421 30.7961571 24.8104112c-1.4601324-2.2835977-4.0364236-3.5483596-6.4863572-4.7077246C25.8682104 15.9781578 26.310462 11.2634067 24.6046343 7.19508952 22.8988066 3.1267723 18.7149658-.0281058184 14.3275488.316190457 9.62423784.681566097 6.01602613 4.70069813 3.84688719 8.89549153 2.2590898 11.9841917 1.16700098 15.3038427.61072844 18.732528.302695578 20.1767233.314676513 21.6709486.645827776 23.1100092c.358250984 1.455548 1.453630714 2.6159794 2.885165394 3.0565078L3.42569516 26.2508344z" id="Shape"/></g><path d="M233.466741 165.46598C233.29875 165.462642 233.15568 165.342819 233.122768 165.177895 231.185284 155.045747 232.898132 145.897303 234.702238 136.207823 235.067271 134.254468 235.439324 132.265982 235.790317 130.22831 237.896277 118.184967 233.256145 110.961771 233.214026 110.891507 233.161323 110.814624 233.142027 110.719633 233.160551 110.628254 233.179074 110.536876 233.233832 110.456924 233.312304 110.406681 233.473369 110.300846 233.689558 110.344752 233.796675 110.505052 233.845814 110.582343 238.605284 118.030384 236.485284 130.347759 236.134291 132.392458 235.783297 134.380944 235.397205 136.341325 233.600119 145.960542 231.887271 155.045747 233.817734 165.044392 233.852166 165.23598 233.727495 165.420042 233.53694 165.458953L233.466741 165.46598z" id="Shape" fill="gray" fill-rule="nonzero"/><path d="M234.639059 139.425939C234.503242 139.424914 234.380206 139.34555 234.323165 139.222172 234.288066 139.144881 230.764092 131.570363 222.480649 129.385135 222.295243 129.333797 222.185669 129.142645 222.234954 128.956521 222.256103 128.865195 222.314275 128.786801 222.395512 128.740146 222.47675 128.69349 222.573722 128.682784 222.663166 128.710596c8.61337700000001 2.29765 12.263707 10.167279 12.298807 10.24457C235.041053 139.131746 234.962588 139.339087 234.786476 139.418912 234.738271 139.430899 234.688183 139.433286 234.639059 139.425939z" id="Shape" fill="gray" fill-rule="nonzero"/><g id="Group" opacity=".5" transform="translate(176.900652, 153.176710)" fill="#ccf1d6" fill-rule="nonzero"><path d="M71.9887374 12.1346871C67.8651292 6.67320499 61.9954302 2.79194742 55.3586722 1.13828565 49.2724474-.35132273 42.4912557.231873002 37.2754945 3.70996803c-1.797086 1.19449729-3.4397349 2.73329085-5.5176156 3.29540721-4.3452978 1.18044438-8.6976154-2.25549193-13.1903303-2.00253956C12.0320523 5.37523777 7.16026447 11.5866236.540529769 11.5655443l71.448207631.5691428z" id="Shape"/></g><g id="Group" opacity=".5" transform="translate(4.913907, 0.000000)" fill="#d2f0f9" fill-rule="nonzero"><path d="M49.7357586 12.4789834c-2.4780131.0-8.0868869-2.2554919-10.0243702-3.29540723C37.773905 8.14366089 35.4292694 7.07563979 33.4847662 8.12258153 33.1407927 8.30526935 32.7827795 8.56524817 32.3826471 8.41769262 31.8701968 8.21392544 31.9193358 7.4761477 31.6806604 7.0124017 31.3156273 6.35191497 30.3960247 6.26759751 29.6519188 6.39407369c-.723850600000002.23355536-1.4967855.26993436-2.2393377.10539682C26.5842368 6.18328005 26.1841044 5.27686741 25.7488726 4.5039574 24.6502897 2.37805851 22.636584.875429573 20.287416.428613731c-2.3305959-.3372698211-4.913907.913439099-5.7352314 3.119745849C14.2222508 4.4266664 14.1731117 5.40334359 13.8150985 6.28165042s-1.214437 1.6722962-2.1059601 1.50366129c-1.3127152-.23889946-1.76198668-2.10793639-3.06768196-2.42412684-1.30569529-.31619046-2.19019855 1.12423273-2.90622499 2.2133332-1.003841 1.5317671-1.66370851 4.91851823-5.559734772 4.91851823L49.7357586 12.4789834z" id="Shape"/></g><path d="M61.1500626 164.742255S53.89152 151.019589 45.7484741 150.478552C40.2097989 150.113176 37.7879448 153.289134 35.7943025 154.778742c-1.5935098 1.173418-5.7422513 6.260571-9.3223835 7.342645C21.1648994 163.723419 18.5535088 156.900731 12.0109927 156.879652 6.46529763 156.879652.596688706 164.742255.596688706 164.742255H61.1500626z" id="Shape" fill="#ccf1d6" fill-rule="nonzero"/><path d="M36.5033091 123.356437S42.371918 126.110807 43.1090041 131.43686C43.8460901 136.762912 42.7369511 139.16596 44.5761563 141.344161 46.4153615 143.522362 51.9048976 147.949028 47.8754938 153.457769 43.8460901 158.966509 39.4516533 156.760202 36.5033091 155.108985 33.5549649 153.457769 31.3717862 146.845875 34.3060907 142.074912 37.2403951 137.303949 38.5180109 133.818828 37.2403951 129.968331 35.9627793 126.117834 32.4879451 122.625686 36.5033091 123.356437z" id="Shape" fill="#99e3ad" fill-rule="nonzero"/><path d="M40.2799976 164.91089H40.2238387C40.0339053 164.878541 39.903608 164.701543 39.9290042 164.510382c5.0262249-31.401226-2.3586753-37.598559-2.428874-37.654771C37.3606143 126.733326 37.3402108 126.523507 37.4535486 126.376587 37.5668864 126.229668 37.7748529 126.19635 37.9283421 126.300522c.315894.245925 7.8060923 6.36596700000001 2.695629 38.322283C40.593553 164.789197 40.4489924 164.910269 40.2799976 164.91089z" id="Shape" fill="gray" fill-rule="nonzero"/><path d="M184.41191 164.805493H49.2513878c-1.8686974.0-3.38357600000001-1.5163-3.38357600000001-3.386751V62.3457317C45.8678118 60.4752807 47.3826904 58.9589806 49.2513878 58.9589806H87.650061C88.8377873 58.9589806 89.938154 59.5837673 90.5492661 60.603171l4.0294038 6.7032377C95.1915155 68.323116 96.2915632 68.9443064 97.477875 68.9435726H184.41191C186.280607 68.9435726 187.795485 70.4598727 187.795485 72.3303237V161.425768C187.791614 163.293475 186.277869 164.805493 184.41191 164.805493z" id="Shape" fill="#001a7d" fill-rule="nonzero"/><polygon id="Rectangle-path" fill="#f2f2f2" fill-rule="nonzero" transform="translate(171.139879, 84.325585) rotate(-89.810000) translate(-171.139879, -84.325585)" points="108.688903 35.5341926 233.591159 35.5338042 233.590855 133.116978 108.688599 133.117367"/><g id="Rectangle-path" fill-rule="nonzero" transform="translate(175.809505, 89.034894) rotate(-89.810000) translate(-175.809505, -89.034894)"><use fill="#000" fill-opacity="1" filter="url(#filter-2)" xlink:href="#path-1"/><use fill="#fff" xlink:href="#path-1"/></g><polygon id="Rectangle-path" fill="#f2f2f2" fill-rule="nonzero" transform="translate(168.817918, 72.156631) rotate(0.190000) translate(-168.817918, -72.156631)" points="144.444934 70.7477506 193.190892 70.7479022 193.190901 73.5655105 144.444943 73.5653588"/><polygon id="Rectangle-path" fill="#f2f2f2" fill-rule="nonzero" transform="translate(191.725168, 92.876293) rotate(0.190000) translate(-191.725168, -92.876293)" points="176.253376 91.467441 207.196951 91.4675373 207.196959 94.2851456 176.253385 94.2850493"/><polygon id="Rectangle-path" fill="#f9cceb" fill-rule="nonzero" transform="translate(191.656752, 113.526697) rotate(0.190000) translate(-191.656752, -113.526697)" points="176.18496 112.117845 207.128535 112.117941 207.128544 114.935549 176.184969 114.935453"/><polygon id="Rectangle-path" fill="#f2f2f2" fill-rule="nonzero" transform="translate(175.680374, 123.890327) rotate(0.190000) translate(-175.680374, -123.890327)" points="144.266464 122.576282 207.094275 122.576477 207.094284 125.204371 144.266472 125.204176"/><polygon id="Rectangle-path" fill="#f2f2f2" fill-rule="nonzero" transform="translate(170.774754, 134.115064) rotate(0.190000) translate(-170.774754, -134.115064)" points="144.232632 132.706178 197.316868 132.706343 197.316876 135.523951 144.232641 135.523786"/><polygon id="Rectangle-path" fill="#f2f2f2" fill-rule="nonzero" transform="translate(175.920446, 51.427691) rotate(0.190000) translate(-175.920446, -51.427691)" points="144.506536 50.1136462 207.334348 50.1138417 207.334356 52.7417357 144.506544 52.7415402"/><polygon id="Rectangle-path" fill="#f2f2f2" fill-rule="nonzero" transform="translate(175.885621, 61.939093) rotate(0.190000) translate(-175.885621, -61.939093)" points="144.471711 60.625048 207.299523 60.6252435 207.299531 63.2531375 144.471719 63.252942"/><polygon id="Rectangle-path" fill="#f2f2f2" fill-rule="nonzero" transform="translate(155.588377, 103.081661) rotate(0.190000) translate(-155.588377, -103.081661)" points="144.335494 91.3474468 166.841188 91.3475169 166.841261 114.815875 144.335567 114.815805"/><polygon id="Rectangle-path" fill="#f2f2f2" fill-rule="nonzero" transform="translate(191.690948, 103.205008) rotate(0.190000) translate(-191.690948, -103.205008)" points="176.219157 101.796156 207.162731 101.796252 207.16274 104.613861 176.219165 104.613764"/><path d="M135.427277 36.2424529C134.836512 36.2424647 134.270146 36.0066066 133.853733 35.587164 133.437319 35.1677215 133.20526 34.5993474 133.208999 34.0080403V24.6206969H133.910985v9.3873434C133.904923 34.4139845 134.064659 34.804818 134.353237 35.0901143 134.636759 35.3777531 135.023587 35.5397153 135.427277 35.5398074 136.265844 35.5398163 136.946723 34.8614389 136.950588 34.0220932L136.992707 21.8171416C136.98891 20.4582184 135.893359 19.3553732 134.535754 19.3438295 133.179265 19.3476649 132.079482 20.4453434 132.07178 21.8030886H131.369793C131.377523 20.0584269 132.79271 18.6482105 134.535754 18.6482105c1.746903.00773699999999877 3.15894 1.427398 3.15894 3.1759575L137.652575 34.0291197C137.644878 35.2549249 136.651951 36.2456487 135.427277 36.2494793V36.2424529z" id="Shape" fill="#666" fill-rule="nonzero"/><path d="M186.026479 164.742267H48.1352289C47.4954422 164.744443 46.8871087 164.464716 46.4719649 163.977446 46.0568211 163.490175 45.876934 162.844737 45.9801297 162.212731L63.5929763 78.4573921C63.7619779 77.3971522 64.6754324 76.6164522 65.7480756 76.6164522H203.576147C204.216336 76.6146384 204.825063 76.8941644 205.24125 77.3810724 205.657436 77.8679804 205.839135 78.5131956 205.738266 79.1459847L188.132439 162.901324C187.963995 163.941986 187.079378 164.715277 186.026479 164.742267z" id="Shape" fill="#394c9f" fill-rule="nonzero"/><path d="M126.877079 138.336838C126.778901 138.343124 126.680422 138.343124 126.582244 138.336838 125.784388 138.167882 125.270995 137.38767 125.430986 136.587251L130.471251 111.720628C130.667509 110.955903 131.428094 110.479296 132.201081 110.636661 132.974067 110.794026 133.488227 111.530147 133.370456 112.31085L128.323171 137.121262C128.197714 137.82286 127.589154 138.334412 126.877079 138.336838z" id="Shape" fill="#fff" fill-rule="nonzero"/><path d="M139.428601 124.087188C138.950236 124.087188 138.500982 123.857227 138.221184 123.46886L131.643568 114.207993l-10.466622 8.797121C120.552755 123.530936 119.620885 123.450717 119.095556 122.82594 118.570227 122.201163 118.650371 121.268418 119.274562 120.742596L130.969661 110.90556C131.283987 110.637151 131.697207 110.514601 132.10688 110.56829 132.515908 110.622747 132.884271 110.843972 133.12476 111.179591L140.628998 121.719273C140.855533 122.03876 140.945833 122.435306 140.879992 122.821497 140.814151 123.207688 140.597575 123.551817 140.278005 123.778024 140.036656 123.971976 139.738042 124.080665 139.428601 124.087188z" id="Shape" fill="#fff" fill-rule="nonzero"/></g></g></g></g></g></g></g></g></svg>