<svg width="167" height="122" viewBox="0 0 167 122" xmlns="http://www.w3.org/2000/svg" xmlns:xlink="http://www.w3.org/1999/xlink"><title>fast-answers</title><desc>Created with Sketch.</desc><defs><rect id="path-1" x="1" y="43.9253793" width="165" height="77" rx="38.5"/><polygon id="path-3" points="0.399252352 0.140606481 151.117015 0.140606481 151.117015 10.1219153 0.399252352 10.1219153"/><path d="M7.7854213.0389271065C3.51317136.0389271065.0389271065 3.51317136.0389271065 7.7854213c0 4.2722499 3.4742442535 7.7464942 7.7464941935 7.7464942 4.2722499.0 7.7464942-3.4742443 7.7464942-7.7464942.0-4.27224994-3.4742443-7.7464941935-7.7464942-7.7464941935zM11.2888609 6.00450618 6.60787633 10.3838057C6.50082678 10.4713916 6.37431369 10.5297823 6.22833704 10.5297823 6.08236039 10.5297823 5.93638374 10.4713916 5.83906597 10.3643421L4.27224994 8.80725784c-.21409909-.22383086-.21409909-.57417482.0-.7882739.21409908-.21409909.56444304-.21409909.7882739.0L6.23806882 9.19652891 10.5395141 5.18703694C10.7633449 4.98266963 11.1136889 4.99240141 11.3180562 5.21623227 11.4251058 5.32328181 11.4737646 5.46925846 11.4737646 5.61523511 11.4640329 5.77094354 11.4056422 5.90718841 11.2888609 6.00450618z" id="path-5"/></defs><g id="Visual" stroke="none" stroke-width="1" fill="none" fill-rule="evenodd"><g id="Homework-help" transform="translate(-1176.000000, -744.000000)"><g id="Group-3-Copy-2" transform="translate(0.000000, 668.000000)"><g id="Group-2" transform="translate(264.000000, 76.000000)"><g id="fast-answers" transform="translate(912.000000, 0.000000)"><rect id="Rectangle-Copy-4" fill="#fff" x="0" y="0" width="167" height="122"/><mask id="mask-2" fill="#fff"><use xlink:href="#path-1"/></mask><use id="Rectangle" fill="#f2f2f2" xlink:href="#path-1"/><g id="Group-27-Copy" transform="translate(6.574580, 27.233740)"><g id="Group-3" transform="translate(0.000000, 82.969583)"><mask id="mask-4" fill="#fff"><use xlink:href="#path-3"/></mask><g id="Clip-2"/><path d="M135.077871 10.1219153H16.4383962c-5.0236445.0-9.99110658-1.03037534-14.57278274-3.30505546L1.37682642 6.63703505C.77005631 6.33526014.399252352 5.74307853.399252352 5.00827727V1.70322182c0-1.030375327.719134948-1.562615339 1.652699458-1.562615339H148.619707c1.40081499999999.0 2.497308.949764219 2.497308 2.496877419V5.00724379C151.117015 5.74204505 150.746211 6.40863691 150.139441 6.70937836L149.642227 6.81582636C145.060551 9.09153996 140.102452 10.1219153 135.077871 10.1219153" id="Fill-1" fill="#dde0e3" mask="url(#mask-4)"/></g><path d="M138.775515 83.3229754H12.0128927V5.24411108c0-2.85563731 2.3552763-4.86676583 4.9000786-4.86676583H133.914997C136.437719.37734525 138.775515 2.36782563 138.775515 5.19971759V83.3229754z" id="Fill-4" fill="#dde0e3"/><polygon id="Fill-6" fill="#fff" points="17.0035472 83.3226657 133.78486 83.3226657 133.78486 7.68854075 17.0035472 7.68854075"/><path d="M.157351056 89.3056698C.32903168 89.3056698.611413471 89.8497482.975413919 90.029387L1.48388877 90.0634564C6.07423463 92.3368163 11.0501583 93.2938574 16.084247 93.2938574H134.948218c5.033151.0 10.010951-1.02930959999999 14.601296-3.30266949999999L150.057989 89.9560861C150.421052 89.7764473 150.704372 89.3056698 150.875114 89.3056698H.157351056z" id="Fill-8" fill="#a7aaad"/></g><g id="Group-58" transform="translate(128.250473, 75.409348)"><polygon id="Fill-1" fill="#a7aaad" points="13.6722745 9.66307146 23.1892335 9.66307146 23.1892335 4.58855156 13.6722745 4.58855156"/><g id="Group-57" transform="translate(0.000000, 0.153489)"><path d="M23.233884 6.24014624H13.6278145C13.0957721 6.24014624 12.6645152 5.80469936 12.6645152 5.26748783V1.05977185C12.6645152.522560313 13.0957721.0871134337 13.6278145.0871134337H23.233884c.532042400000002.0.9632994.4354468793.9632994.9726584163V5.26748783C24.1971834 5.80469936 23.7659264 6.24014624 23.233884 6.24014624" id="Fill-2" fill="#3348ab"/><path d="M33.7901961 13.6489742 29.3518236 9.16772057C29.2081507 9.02241122 28.9748907 9.02241122 28.8312178 9.16772057L26.3983092 11.6242665C26.2543981 11.7693352 26.2543981 12.0046209 26.3983092 12.1499302l4.4383725 4.4812536C30.9803546 16.7764932 31.2133763 16.7764932 31.3572875 16.6311838l2.4329086-2.4563053C33.933869 14.0295692 33.933869 13.7942835 33.7901961 13.6489742" id="Fill-16" fill="#3348ab"/><path d="M3.07140713 13.6489742 7.50977962 9.16772057c.14367289-.14530935.37693286-.14530935.52060575.0L10.463294 11.6242665C10.6072051 11.7693352 10.6072051 12.0046209 10.463294 12.1499302L6.02492149 16.6311838C5.8812486 16.7764932 5.64798863 16.7764932 5.50431574 16.6311838L3.07140713 14.1748785c-.14391115-.145309300000001-.14391115-.380595.0-.525904300000001" id="Fill-18" fill="#3348ab"/><g id="Group-22" transform="translate(0.000000, 7.698508)" fill="#d34698"><path d="M36.8615556 18.6797329c0 10.2779898-8.2517799 18.6097005-18.4306349 18.6097005-10.17909323.0-18.4308730472992-8.3317107-18.4308730472992-18.6097005C.476527008e-4 8.40174304 8.25182747.0700323683 18.4309207.0700323683c10.178855.0 18.4306349 8.3317106717 18.4306349 18.6097005317" id="Fill-20"/></g><path d="M33.8409224 26.3782412c0 8.5937006-6.8993962 15.5598883-15.4101684 15.5598883-8.51077229.0-15.41016847-6.9661877-15.41016847-15.5598883.0-8.5934599 6.89939618-15.5598883 15.41016847-15.5598883 8.5107722.0 15.4101684 6.9664284 15.4101684 15.5598883" id="Fill-25" fill="#f9fafb"/><path d="M20.1325034 26.3782412c0 .948841199999997-.761966700000002 1.7184514-1.701678 1.7184514C17.4911142 28.0966926 16.7291475 27.3270824 16.7291475 26.3782412c0-.948841100000003.761966699999999-1.7182108 1.7016779-1.7182108.939711299999999.0 1.701678.769369699999999 1.701678 1.7182108" id="Fill-51" fill="#a7aaad"/><path d="M21.0726554 24.865466l-7.2945936-5.5306675 8.3094093 3.8424996C22.5888357 23.4093931 22.8097113 24.0002456 22.5811615 24.4972683 22.3523718 24.9942901 21.7602448 25.2091596 21.2588812 24.9773034 21.193235 24.9469357 21.1282687 24.9070172 21.0726554 24.865466" id="Fill-53" fill="#a7aaad" transform="translate(18.224695, 22.202729) rotate(-300.000000) translate(-18.224695, -22.202729)"/><path d="M18.6715549 27.8976033 28.712558 23.211593l-9.0416895 6.4052118C19.2253218 29.9326889 18.6062744 29.8232929 18.2884107 29.3729274 17.970547 28.9225619 18.0739968 28.3014078 18.5195454 27.9860037 18.5669337 27.9523632 18.6210216 27.9216308 18.6715549 27.8976033" id="Fill-55" fill="#a7aaad" transform="translate(23.408306, 26.504473) rotate(-330.000000) translate(-23.408306, -26.504473)"/></g></g><g id="Group" transform="translate(150.000000, 105.000000)"><circle id="Oval" fill="#fff" cx="7.98504705" cy="7.98504705" r="7.98504705"/><g id="Icon-/-chi-check-circle-filled"><mask id="mask-6" fill="#fff"><use xlink:href="#path-5"/></mask><g id="chi-check-circle-filled" fill-rule="nonzero"/><g id="Color-/-Extended-/-Success-green" mask="url(#mask-6)" fill="#30a04d" fill-rule="evenodd"><rect id="Color-/-Green" x="0" y="0" width="15.9654254" height="15.959231"/></g></g></g><g id="Group-18" transform="translate(45.398133, 49.457945)"><rect id="Rectangle-Copy-14" fill="#3348ab" x="30.6825423" y="17.3974207" width="15.7205609" height="26.6201498"/><path d="M2.5886797.0H33.4373845l9.9748483 9.46869047V47.8104693c0 1.1576301-.938444699999998 2.0960747-2.0960748 2.0960747H2.5886797C1.43104956 49.906544.492604913 48.9680994.492604913 47.8104693V2.09607478C.492604913.938444646 1.43104956-231436003e-24 2.5886797.0z" id="Rectangle" fill="#3348ab"/><rect id="Rectangle" fill="#3348ab" x="30.6825423" y="17.3974207" width="15.7205609" height="6.91704679"/><g id="Group-2" transform="translate(56.923404, 28.865945) scale(-1, 1) translate(-56.923404, -28.865945) translate(26.979477, 11.149122)"><rect id="Rectangle" fill="#3348ab" x="7.3462422" y="0" width="47.4112168" height="4.19214957" rx="2.09607478"/><rect id="Rectangle-Copy-18" fill="#3348ab" x=".339364146" y="0" width="3.99252352" height="4.19214957" rx="1.99626176"/><rect id="Rectangle-Copy-7" fill="#3348ab" x="14.3331584" y="8.80351409" width="40.4243007" height="4.19214957" rx="2.09607478"/><rect id="Rectangle-Copy-9" fill="#3348ab" x="27.5084868" y="17.6070282" width="23.8952525" height="4.19214957" rx="2.09607478"/><rect id="Rectangle-Copy-19" fill="#3348ab" x="21.5197016" y="17.6070282" width="3.99252352" height="4.19214957" rx="1.99626176"/><rect id="Rectangle-Copy-11" fill="#3348ab" x="29.9439264" y="26.4105423" width="28.5066171" height="4.19214957" rx="2.09607478"/><rect id="Rectangle-Copy-20" fill="#3348ab" x="23.4560757" y="26.4105423" width="3.99252352" height="4.19214957" rx="1.99626176"/><rect id="Rectangle-Copy-21" fill="#3348ab" x="17.4672904" y="26.4105423" width="3.99252352" height="4.19214957" rx="1.99626176"/><rect id="Rectangle-Copy-6" fill="#fff" x="29.5945792" y="4.19214957" width="29.9439264" height="4.61136453" rx="2.09607478"/><rect id="Rectangle-Copy-8" fill="#fff" x="32.3494211" y="12.9956637" width="16.968225" height="4.61136453" rx="2.09607478"/><rect id="Rectangle-Copy-10" fill="#fff" x="33.9963369" y="21.7991778" width="19.9626176" height="4.61136453" rx="2.09607478"/><rect id="Rectangle-Copy-12" fill="#fff" x="31.8004491" y="30.6026918" width="14.9719632" height="4.61136453" rx="2.09607478"/></g><rect id="Rectangle-Copy-15" fill="#fff" x="7.02683993" y="31.2614583" width="17.1878132" height="1.67685983" rx=".838429914"/><rect id="Rectangle-Copy-16" fill="#fff" x="6.98691617" y="37.429908" width="17.1878132" height="1.67685983" rx=".838429914"/><rect id="Rectangle-Copy-17" fill="#fff" x="6.98691617" y="43.4186933" width="10.6899814" height="1.67685983" rx=".838429914"/><text id="A" transform="translate(10.987094, 22.967158) rotate(-1.000000) translate(-10.987094, -22.967158)" font-family="HaasGrotText-75Bold, Haas Grot Text" font-size="10.4803739" font-weight="bold" fill="#fff"><tspan x="6.98709444" y="26.4671584">A</tspan></text><path d="M33.4373845-213162821e-22 43.3705783 9.474589H36.1622817c-1.5049192.0-2.7248972-1.21997804-2.7248972-2.72489722V-213162821e-22z" id="Path-5" fill="#435cd4"/></g></g></g></g></g></g></svg>