<svg width="167" height="123" viewBox="0 0 167 123" xmlns="http://www.w3.org/2000/svg" xmlns:xlink="http://www.w3.org/1999/xlink"><title>step by step</title><desc>Created with Sketch.</desc><defs><rect id="path-1" x="4" y="43.3999992" width="156" height="79" rx="39.5"/></defs><g id="Visual" stroke="none" stroke-width="1" fill="none" fill-rule="evenodd"><g id="Homework-help" transform="translate(-756.000000, -744.000000)"><g id="Group-3-Copy-2" transform="translate(0.000000, 668.000000)"><g id="Group-2" transform="translate(264.000000, 76.000000)"><g id="step-by-step" transform="translate(492.000000, 0.000000)"><rect id="Rectangle-Copy-3" fill="#fff" x="0" y="0" width="167" height="122"/><mask id="mask-2" fill="#fff"><use xlink:href="#path-1"/></mask><use id="Rectangle" fill="#f2f2f2" xlink:href="#path-1"/><g id="paper" mask="url(#mask-2)"><g transform="translate(18.400192, 5.960192)"><path d="M89.5967982 127.896093H1.71935997C.769919985 127.896093 149213975e-21 127.126173 149213975e-21 126.175773V10.6474558C149213975e-21 9.69705581.769919985 8.92713582 1.71935997 8.92713582H89.5967982c.950400000000002.0 1.72032.76991999 1.72032 1.72031998V126.175773C91.3171182 127.126173 90.5471982 127.896093 89.5967982 127.896093" id="Fill-1" fill="#dde0e3"/><polygon id="Fill-3" fill="#fff" points="4.72588791 123.515326 86.5908463 123.515326 86.5908463 12.6660477 4.72588791 12.6660477"/><path d="M23.5246075 7.30454385h45V12.1295038c0 1.2854399-1.0425608 2.3279999-2.3280008 2.3279999H25.8526075c-1.2864.0-2.328-1.04256-2.328-2.3279999V7.30454385z" id="Fill-5" fill="#3348ab"/><path d="M45.3439671 6.46271987c-1.14912.0-2.08032-.93215998-2.08032-2.08127996.0-1.14911997.931199999999997-2.08031996 2.08032-2.08031996 1.14912.0 2.08128.93119999 2.08128 2.08031996.0 1.14911998-.932160000000003 2.08127996-2.08128 2.08127996m0-6.46271987000014c-2.42016.0-4.3814399 1.96127996000014-4.3814399 4.38143991000014.0 2.42015995 1.9612799 4.38143992 4.3814399 4.38143992S49.725407 6.80159986 49.725407 4.38143991C49.725407 1.96127996 47.7641271-142108547e-21 45.3439671-142108547e-21" id="Fill-6" fill="#3348ab"/><polygon id="Fill-7" fill="#f5f5f5" points="23.1959995 46.2970551 15.4775997 46.2960951 15.4795197 38.6151352 23.1969595 38.6170552"/><polygon id="Fill-8" fill="#d34a9a" points="26.5536955 38.9643832 25.0762555 37.6415033 19.4055356 44.1272631 15.9120957 40.7855032 14.5469757 42.2139832 19.5159356 46.9784631"/><polygon id="Fill-9" fill="#f5f5f5" points="32.2404474 40.5367672 73.5204465 40.5367672 73.5204465 38.6167672 32.2404474 38.6167672"/><polygon id="Fill-10" fill="#f5f5f5" points="32.2404474 46.2958071 63.9204467 46.2958071 63.9204467 44.3758071 32.2404474 44.3758071"/><polygon id="Fill-11" fill="#f5f5f5" points="23.1959995 69.3370546 15.4775997 69.3360946 15.4795197 61.6551348 23.1969595 61.6570548"/><polygon id="Fill-12" fill="#d34a9a" points="26.5536955 62.0043828 25.0762555 60.6815028 19.4055356 67.1672627 15.9120957 63.8255027 14.5469757 65.2539827 19.5159356 70.0184626"/><polygon id="Fill-13" fill="#f5f5f5" points="32.2404474 63.5767667 65.8404467 63.5767667 65.8404467 61.6567668 32.2404474 61.6567668"/><polygon id="Fill-14" fill="#f5f5f5" points="32.2404474 69.3358066 68.7204466 69.3358066 68.7204466 67.4158067 32.2404474 67.4158067"/><polygon id="Fill-15" fill="#f5f5f5" points="23.1959995 92.3770542 15.4775997 92.3760942 15.4795197 84.6951343 23.1969595 84.6970543"/><polygon id="Fill-16" fill="#d34a9a" points="26.5536955 85.0443823 25.0762555 83.7215023 19.4055356 90.2072622 15.9120957 86.8655023 14.5469757 88.2939822 19.5159356 93.0584622"/><polygon id="Fill-17" fill="#f5f5f5" points="32.2404474 86.6167663 72.5604466 86.6167663 72.5604466 84.6967663 32.2404474 84.6967663"/><polygon id="Fill-18" fill="#f5f5f5" points="32.2404474 92.3758062 58.1604468 92.3758062 58.1604468 90.4558062 32.2404474 90.4558062"/></g></g><g id="paper-copy" transform="translate(18.400192, 5.000192)"><path d="M89.5967982 108.767134H1.71935997C.769919985 108.767134.0 108.121009.0 107.323423V10.3708464C0 9.57326076.769919985 8.92713582 1.71935997 8.92713582H89.5967982c.950400000000002.0 1.72032.64612494 1.72032 1.44371058V107.323423C91.3171182 108.121009 90.5471982 108.767134 89.5967982 108.767134" id="Fill-1" fill="#dde0e3"/><polygon id="Fill-3" fill="#fff" points="4.72588791 111.546046 86.5908463 111.546046 86.5908463 13.6260477 4.72588791 13.6260477"/><polygon id="Fill-7" fill="#f5f5f5" points="23.1959995 47.2570551 15.4775997 47.2560951 15.4795197 39.5751352 23.1969595 39.5770552"/><polygon id="Fill-9" fill="#dde0e3" points="32.2404474 41.4967672 73.5204465 41.4967672 73.5204465 39.5767672 32.2404474 39.5767672"/><polygon id="Fill-10" fill="#dde0e3" points="32.2404474 47.2558071 63.9204467 47.2558071 63.9204467 45.3358071 32.2404474 45.3358071"/><polygon id="Fill-11" fill="#f5f5f5" points="23.1959995 70.2970546 15.4775997 70.2960946 15.4795197 62.6151348 23.1969595 62.6170548"/><polygon id="Fill-13" fill="#dde0e3" points="32.2404474 64.5367667 65.8404467 64.5367667 65.8404467 62.6167668 32.2404474 62.6167668"/><polygon id="Fill-14" fill="#dde0e3" points="32.2404474 70.2958066 68.7204466 70.2958066 68.7204466 68.3758066 32.2404474 68.3758066"/><polygon id="Fill-15" fill="#f5f5f5" points="23.1959995 93.3370541 15.4775997 93.3360941 15.4795197 85.6551343 23.1969595 85.6570543"/><polygon id="Fill-17" fill="#dde0e3" points="32.2404474 87.5767663 72.5604466 87.5767663 72.5604466 85.6567663 32.2404474 85.6567663"/><polygon id="Fill-18" fill="#dde0e3" points="32.2404474 93.3358061 58.1604468 93.3358061 58.1604468 91.4158062 32.2404474 91.4158062"/><path d="M25.9198075 7.30435185h45V12.1293118c0 1.2854399-1.0425609 2.3279999-2.32800090000001 2.3279999H28.2478074c-1.2863999.0-2.3279999-1.04256-2.3279999-2.3279999V7.30435185z" id="Fill-5" fill="#3348ab"/><path d="M47.7391671 6.46252787c-1.14912.0-2.08032-.93215998-2.08032-2.08127996.0-1.14911997.931199999999997-2.08031996 2.08032-2.08031996 1.1491199.0 2.0812799.93119999 2.0812799 2.08031996.0 1.14911998-.932160000000003 2.08127996-2.0812799 2.08127996m0-6.462719869997C45.3190071-.000191999997 43.3577271 1.96108796 43.3577271 4.38124791c0 2.42015995 1.96128 4.38143992 4.38144000000001 4.38143992 2.42015989999999.0 4.3814399-1.96127997 4.3814399-4.38143992.0-2.42015995-1.96128-4.381439909997-4.3814399-4.381439909997" id="Fill-6" fill="#3348ab"/></g><path d="M162.400006 56.2666876V90.3106627C162.400906 91.6874698 161.874738 93.0081533 160.937447 93.9817031 160.000157 94.955253 158.728663 95.5017762 157.403134 95.5008475H134.961471L135.042283 104.39481C135.041369 104.565674 134.946896 104.721096 134.798773 104.795422 134.650649 104.869747 134.47471 104.850012 134.345279 104.744553L122.819464 95.5008475H104.036892C102.711364 95.5017762 101.439869 94.955253 100.502579 93.9817031 99.5652889 93.0081533 99.0391209 91.6874698 99.0400048 90.3106627V56.2666876c0-1.3762012.5265725-2.69598569999999 1.4637652-3.6687789C101.440964 51.6251156 102.711948 51.0790723 104.036892 51.0799897h53.366242C158.728079 51.0790723 159.999063 51.6251156 160.936256 52.5979087 161.873449 53.5707019 162.400006 54.8904864 162.400006 56.2666876z" id="Path" fill="#3348ab" fill-rule="nonzero" transform="translate(130.720005, 77.959994) scale(-1, 1) translate(-130.720005, -77.959994)"/><polygon id="Fill-9" fill="#f5f5f5" points="108.240638 78.1769585 149.520637 78.1769585 149.520637 76.2569586 108.240638 76.2569586"/><text id="Q" font-family="HaasGrotText-75Bold, Haas Grot Text" font-size="12.4799998" font-weight="bold" fill="#fff"><tspan x="106.719998" y="69.7199989">Q</tspan></text><polygon id="Fill-10-Copy" fill="#f5f5f5" points="108.240638 85.8559984 139.920637 85.8559984 139.920637 83.9359984 108.240638 83.9359984"/><text id="1" font-family="HaasGrotText-75Bold, Haas Grot Text" font-size="12.4799998" font-weight="bold" fill="#e00099"><tspan x="34.7199994" y="51.4799993">1</tspan></text><text id="2" font-family="HaasGrotText-75Bold, Haas Grot Text" font-size="12.4799998" font-weight="bold" fill="#e00099"><tspan x="33.7599994" y="74.5199988">2</tspan></text><text id="3" font-family="HaasGrotText-75Bold, Haas Grot Text" font-size="12.4799998" font-weight="bold" fill="#e00099"><tspan x="33.7599994" y="97.5599984">3</tspan></text></g></g></g></g></g></svg>